<svg xmlns="http://www.w3.org/2000/svg" width="199" height="145" viewBox="0 0 199 145" fill="none">    <path d="M99.501 0C81.4227 0 66.7224 14.5399 66.7224 32.4139V67.12C66.7224 84.9918 81.4227 99.5339 99.501 99.5339C117.579 99.5339 132.277 84.9918 132.277 67.12V32.4139C132.277 14.5399 117.573 0 99.501 0ZM100.924 73.8834V69.1838C110.509 69.5031 119.619 73.3878 126.434 80.0616C125.717 81.5089 124.881 82.8961 123.936 84.2092C117.91 77.9464 109.659 74.2439 100.924 73.8834ZM75.0701 84.2092C74.1251 82.8961 73.29 81.5089 72.5729 80.0616C79.3872 73.3878 88.4972 69.5031 98.0821 69.1838V73.8834C89.3476 74.2439 81.0965 77.9464 75.0701 84.2092ZM77.5358 67.12V57.2287C78.1926 57.6454 78.8695 58.0356 79.5711 58.3903C83.0798 60.1786 86.9708 61.109 90.918 61.1036C93.3475 61.1029 95.7639 60.7519 98.0911 60.0617V66.3818C91.0466 66.5956 84.1778 68.6079 78.1522 72.223C77.7418 70.5523 77.5334 68.8393 77.5313 67.12H77.5358ZM88.3492 10.5142L85.7758 6.10947C88.0328 4.95215 90.4307 4.08642 92.9108 3.53356L93.8074 8.54573C91.9156 8.98591 90.0834 9.6467 88.3492 10.5142ZM99.501 10.6871C105.325 10.6942 110.908 12.9853 115.026 17.0579C119.145 21.1305 121.461 26.6521 121.468 32.4117V39.2594C116.449 39.4178 111.595 41.0747 107.546 44.0122C109.098 39.4258 109.253 34.4893 107.99 29.8169C106.727 25.1446 104.102 20.9427 100.442 17.7343L99.501 16.9075L98.5596 17.7343C94.899 20.942 92.2734 25.1436 91.0095 29.8161C89.7456 34.4886 89.8993 39.4255 91.4515 44.0122C87.4024 41.0759 82.5498 39.4198 77.5313 39.2616V32.4139C77.5378 26.6536 79.8546 21.1311 83.9733 17.0579C88.092 12.9847 93.6763 10.6936 99.501 10.6871ZM105.183 8.54573L106.08 3.53356C108.56 4.08715 110.957 4.95206 113.215 6.10726L110.648 10.5142C108.912 9.64602 107.078 8.9852 105.183 8.54573ZM76.7154 42.0392C80.2143 42.0342 83.6633 42.859 86.7733 44.4444C91.3563 46.7692 94.9776 50.5997 97.0151 55.2779L71.9049 42.5624C73.4842 42.2145 75.0974 42.039 76.7154 42.0392ZM100.924 50.1527V22.2499C104.211 26.1724 106.01 31.1069 106.01 36.2013C106.01 41.2957 104.211 46.2302 100.924 50.1527ZM98.0888 50.1527C94.8018 46.2302 93.0029 41.2957 93.0029 36.2013C93.0029 31.1069 94.8018 26.1724 98.0888 22.2499V50.1527ZM112.224 44.4444C116.805 42.114 122.068 41.4479 127.095 42.5624L101.976 55.2779C104.013 50.5993 107.634 46.7686 112.217 44.4444H112.224ZM124.311 39.3237V33.8171H129.451V40.2791C127.774 39.783 126.049 39.4628 124.304 39.3237H124.311ZM124.268 31.0129C124.159 29.0951 123.82 27.1968 123.26 25.3579L128.099 23.6133C128.855 26.0142 129.297 28.501 129.415 31.0129H124.268ZM122.289 22.7243C121.518 20.9598 120.54 19.291 119.375 17.7521L123.311 14.4867C124.855 16.4827 126.136 18.6654 127.122 20.9819L122.289 22.7243ZM76.7243 22.7243L71.887 20.9841C72.8741 18.6676 74.1546 16.4843 75.6977 14.4867L79.6294 17.7543C78.4646 19.2924 77.4866 20.9605 76.7154 22.7243H76.7243ZM75.7537 25.3579C75.193 27.1976 74.8544 29.0966 74.745 31.0151H69.5939C69.71 28.5041 70.1507 26.0181 70.9052 23.6177L75.7537 25.3579ZM74.698 33.8194V39.3237C72.9562 39.4631 71.2342 39.7833 69.5603 40.2791V33.8194H74.698ZM95.7352 57.7718C94.1531 58.1218 92.5369 58.2987 90.9158 58.2994C87.4176 58.3041 83.9693 57.4793 80.86 55.8942C76.2768 53.5709 72.6553 49.7409 70.6183 45.0629L95.7352 57.7718ZM120.857 72.223C114.833 68.609 107.967 66.5967 100.924 66.3818V60.0617C103.251 60.7521 105.668 61.1031 108.097 61.1036C112.045 61.1093 115.937 60.1788 119.447 58.3903C120.148 58.0356 120.825 57.6432 121.484 57.2287V67.12C121.48 68.8396 121.269 70.5525 120.857 72.223ZM118.142 55.8942C115.032 57.4804 111.583 58.3059 108.084 58.3016C106.464 58.3006 104.848 58.1244 103.267 57.7762L128.384 45.0651C126.346 49.7421 122.725 53.5711 118.142 55.8942ZM121.486 12.3387L117.546 15.6106C116.214 14.2135 114.724 12.9741 113.103 11.9175L115.672 7.5127C117.808 8.87249 119.762 10.494 121.486 12.3387ZM103.296 3.04809L102.399 8.05803C101.437 7.94436 100.468 7.88663 99.4988 7.88512C98.5249 7.88748 97.5519 7.94521 96.5847 8.05803L95.6881 3.04809C98.2087 2.72001 100.762 2.72001 103.283 3.04809H103.296ZM83.3258 7.51492L85.9058 11.9197C84.2848 12.9758 82.7938 14.2152 81.463 15.6129L77.5111 12.3409C79.2364 10.4967 81.19 8.87528 83.3258 7.51492ZM69.558 49.1307C70.9351 51.395 72.6704 53.4263 74.698 55.1471V67.1178C74.6964 69.3963 75.0171 71.6639 75.6506 73.8546C74.1552 74.9065 72.7324 76.0559 71.3916 77.2951C70.1829 74.0352 69.566 70.5899 69.5692 67.1178L69.558 49.1307ZM100.924 84.1937C106.88 84.5426 112.474 87.139 116.55 91.447C115.209 92.3719 113.794 93.1874 112.318 93.8855C109.219 90.9698 105.191 89.2091 100.924 88.9044V84.1937ZM98.0888 88.9044C93.8233 89.2093 89.7967 90.9673 86.6949 93.8789C85.2197 93.1808 83.8043 92.3653 82.4628 91.4404C86.5399 87.1327 92.133 84.5364 98.0888 84.1871V88.9044ZM89.6291 95.0671C92.4346 92.8532 95.9174 91.6475 99.5066 91.6475C103.096 91.6475 106.579 92.8532 109.384 95.0671C102.99 97.2854 96.0231 97.2854 89.6291 95.0671ZM118.81 89.7312C116.355 87.0879 113.371 84.9776 110.048 83.534C106.725 82.0904 103.135 81.345 99.5055 81.345C95.876 81.345 92.2861 82.0904 88.963 83.534C85.64 84.9776 82.6564 87.0879 80.201 89.7312C78.9972 88.7272 77.8745 87.6317 76.8431 86.4548C79.7324 83.365 83.2367 80.8996 87.1358 79.2135C91.0348 77.5273 95.2444 76.6569 99.4999 76.6569C103.755 76.6569 107.965 77.5273 111.864 79.2135C115.763 80.8996 119.267 83.365 122.157 86.4548C121.127 87.632 120.006 88.7275 118.803 89.7312H118.81ZM127.628 77.2973C126.283 76.0583 124.857 74.9089 123.358 73.8568C123.991 71.666 124.312 69.3985 124.311 67.12V55.1493C126.338 53.4278 128.073 51.3967 129.451 49.1329V67.1222C129.451 70.5939 128.831 74.0383 127.622 77.2973H127.628Z" fill="#7D806A"/>    <path d="M115.001 33.3786C115.514 33.3786 116.015 33.2284 116.441 32.9469C116.867 32.6654 117.199 32.2653 117.395 31.7972C117.591 31.3291 117.643 30.8139 117.543 30.3169C117.443 29.8199 117.197 29.3633 116.835 29.0048C116.472 28.6463 116.011 28.4021 115.508 28.3029C115.006 28.2038 114.485 28.2542 114.011 28.4479C113.538 28.6415 113.133 28.9696 112.848 29.3907C112.563 29.8118 112.411 30.3071 112.41 30.8138C112.41 31.1505 112.477 31.484 112.607 31.7952C112.737 32.1063 112.928 32.3891 113.168 32.6273C113.409 32.8655 113.695 33.0544 114.009 33.1834C114.324 33.3123 114.661 33.3786 115.001 33.3786Z" fill="#7D806A"/>    <path d="M81.407 30.8136C81.407 31.3204 81.559 31.8159 81.8437 32.2373C82.1284 32.6587 82.5331 32.9872 83.0066 33.1811C83.4801 33.3751 84.0011 33.4258 84.5038 33.327C85.0065 33.2281 85.4682 32.984 85.8306 32.6256C86.193 32.2672 86.4398 31.8106 86.5397 31.3135C86.6397 30.8164 86.5884 30.3012 86.3923 29.8329C86.1962 29.3647 85.864 28.9644 85.4379 28.6829C85.0118 28.4013 84.5108 28.251 83.9983 28.251C83.311 28.251 82.6519 28.521 82.166 29.0015C81.68 29.4821 81.407 30.1339 81.407 30.8136Z" fill="#7D806A"/>    <path d="M9.78404 117.18H6.5853C4.90412 117.18 3.62044 117.595 2.73427 118.425C1.8481 119.256 1.40277 120.622 1.39829 122.524H0.0533447V118.738C0.0533447 116.362 1.32955 115.173 3.88196 115.173H25.0559V117.18H15.6413V144.579H9.78404V117.18Z" fill="#7D806A"/>    <path d="M29.5168 120.966C29.5168 119.453 29.3061 118.332 28.8847 117.603C28.4632 116.875 27.6226 116.51 26.3629 116.51H25.9146V115.18H45.7817C48.3341 115.18 49.6103 116.368 49.6103 118.745V122.531H48.2653C48.2653 120.691 47.7924 119.34 46.8464 118.477C45.9005 117.613 44.4965 117.183 42.6345 117.186H35.3718V128.324H47.0863V130.319H35.3718V142.571H43.0761C44.7887 142.571 46.215 142.193 47.3553 141.436C48.4955 140.679 49.4414 139.365 50.1931 137.492L51.4103 137.936L50.1034 141.456C49.7134 142.524 49.2479 143.311 48.7069 143.817C48.166 144.322 47.3254 144.576 46.1852 144.579H29.5168V120.966Z" fill="#7D806A"/>    <path d="M75.422 143.575C73.8903 142.79 72.644 141.253 71.6831 138.964L70.6475 136.47H58.664L54.9721 144.579H52.6274L65.9155 115.173H67.9441L78.0312 138.964C79.1729 141.726 80.7346 143.211 82.7161 143.42V144.528C82.0077 144.693 81.2807 144.768 80.553 144.75C78.7715 144.777 77.0101 144.374 75.422 143.575ZM59.6099 134.464H69.7912L64.8351 122.837L59.6099 134.464Z" fill="#7D806A"/>    <path d="M85.6929 120.966C85.6929 119.453 85.4822 118.332 85.0608 117.603C84.6393 116.875 83.8002 116.51 82.5435 116.51H82.0951V115.18H87.5018C88.5823 115.18 89.4079 115.358 89.9788 115.714C90.5496 116.071 90.9554 116.657 91.196 117.475C91.4351 118.293 91.5546 119.459 91.5546 120.973V142.58H107.098V144.586H85.6929V120.966Z" fill="#7D806A"/>    <path d="M130.246 143.575C128.716 142.79 127.47 141.253 126.507 138.964L125.472 136.47H113.488L109.794 144.579H107.452L120.742 115.173H122.76L132.847 138.964C133.987 141.726 135.549 143.211 137.532 143.42V144.528C136.823 144.694 136.096 144.768 135.368 144.75C133.59 144.776 131.832 144.372 130.246 143.575ZM114.434 134.464H124.616L119.659 122.837L114.434 134.464Z" fill="#7D806A"/>    <path d="M142.905 122.524V144.579H140.663V120.52C140.663 119.271 140.355 118.292 139.739 117.581C139.124 116.87 138.078 116.513 136.601 116.51H136.377V115.18H139.531C141.212 115.18 142.586 115.396 143.653 115.827C144.717 116.253 145.646 116.952 146.343 117.853L161.826 135.668V115.173H164.067V144.712H162.007L142.905 122.524Z" fill="#7D806A"/>    <path d="M171.691 120.966C171.691 119.453 171.481 118.332 171.061 117.603C170.641 116.875 169.8 116.51 168.537 116.51H168.089V115.18H180.344C186.409 115.18 191.027 116.45 194.196 118.991C197.366 121.531 198.95 125.103 198.949 129.705C198.949 132.644 198.281 135.235 196.945 137.479C195.609 139.722 193.626 141.468 190.998 142.715C188.368 143.961 185.207 144.584 181.516 144.586H171.691V120.966ZM181.377 142.797C183.358 142.832 185.306 142.292 186.981 141.245C188.625 140.211 189.902 138.711 190.812 136.745C191.722 134.78 192.18 132.489 192.186 129.873C192.186 127.29 191.728 125.026 190.812 123.081C189.987 121.242 188.651 119.674 186.958 118.559C185.27 117.478 183.294 116.919 181.283 116.954H180.926C180.127 116.938 179.327 116.998 178.539 117.133L177.548 117.266V142.484L178.539 142.662C179.331 142.762 180.128 142.807 180.926 142.797H181.377Z" fill="#7D806A"/></svg>